<svg xmlns="http://www.w3.org/2000/svg" width="900" height="900" viewBox="0 0 900 900" shape-rendering="crispEdges">
  <style>@media (prefers-reduced-motion: reduce) { .reduceMotionOff { display: none; } }</style>
  <rect x="63" y="549" width="9" height="9" fill="#FF74B8" /><rect x="0" y="612" width="9" height="9" fill="#FF74B8" /><rect x="63" y="558" width="9" height="9" fill="#FF74B8" /><rect x="9" y="612" width="9" height="9" fill="#FF74B8" /><rect x="63" y="567" width="9" height="9" fill="#FF74B8" /><rect x="18" y="612" width="9" height="9" fill="#FF74B8" /><rect x="63" y="576" width="9" height="9" fill="#FF74B8" /><rect x="27" y="612" width="9" height="9" fill="#FF74B8" /><rect x="63" y="585" width="9" height="9" fill="#FF74B8" /><rect x="36" y="612" width="9" height="9" fill="#FF74B8" /><rect x="63" y="594" width="9" height="9" fill="#FF74B8" /><rect x="45" y="612" width="9" height="9" fill="#FF74B8" /><rect x="63" y="603" width="9" height="9" fill="#FF74B8" /><rect x="54" y="612" width="9" height="9" fill="#FF74B8" /><rect x="63" y="612" width="9" height="9" fill="#FF74B8" /><rect x="63" y="612" width="9" height="9" fill="#FF74B8" /><rect x="63" y="621" width="9" height="9" fill="#FF74B8" /><rect x="72" y="612" width="9" height="9" fill="#FF74B8" /><rect x="63" y="630" width="9" height="9" fill="#FF74B8" /><rect x="81" y="612" width="9" height="9" fill="#FF74B8" /><rect x="63" y="639" width="9" height="9" fill="#FF74B8" /><rect x="90" y="612" width="9" height="9" fill="#FF74B8" /><rect x="63" y="648" width="9" height="9" fill="#FF74B8" /><rect x="99" y="612" width="9" height="9" fill="#FF74B8" /><rect x="63" y="657" width="9" height="9" fill="#FF74B8" /><rect x="108" y="612" width="9" height="9" fill="#FF74B8" /><rect x="63" y="666" width="9" height="9" fill="#FF74B8" /><rect x="117" y="612" width="9" height="9" fill="#FF74B8" /><rect x="63" y="675" width="9" height="9" fill="#FF74B8" /><rect x="126" y="612" width="9" height="9" fill="#FF74B8" /><rect x="72" y="621" width="9" height="9" fill="#FF4F9E" /><rect x="54" y="603" width="9" height="9" fill="#FF4F9E" /><rect x="72" y="603" width="9" height="9" fill="#FF4F9E" /><rect x="54" y="621" width="9" height="9" fill="#FF4F9E" /><rect x="81" y="630" width="9" height="9" fill="#FF4F9E" /><rect x="45" y="594" width="9" height="9" fill="#FF4F9E" /><rect x="81" y="594" width="9" height="9" fill="#FF4F9E" /><rect x="45" y="630" width="9" height="9" fill="#FF4F9E" /><rect x="90" y="639" width="9" height="9" fill="#FF4F9E" /><rect x="36" y="585" width="9" height="9" fill="#FF4F9E" /><rect x="90" y="585" width="9" height="9" fill="#FF4F9E" /><rect x="36" y="639" width="9" height="9" fill="#FF4F9E" /><rect x="63" y="612" width="9" height="9" fill="#FFFFFF" /><rect x="963" y="549" width="9" height="9" fill="#FF74B8" /><rect x="900" y="612" width="9" height="9" fill="#FF74B8" /><rect x="963" y="558" width="9" height="9" fill="#FF74B8" /><rect x="909" y="612" width="9" height="9" fill="#FF74B8" /><rect x="963" y="567" width="9" height="9" fill="#FF74B8" /><rect x="918" y="612" width="9" height="9" fill="#FF74B8" /><rect x="963" y="576" width="9" height="9" fill="#FF74B8" /><rect x="927" y="612" width="9" height="9" fill="#FF74B8" /><rect x="963" y="585" width="9" height="9" fill="#FF74B8" /><rect x="936" y="612" width="9" height="9" fill="#FF74B8" /><rect x="963" y="594" width="9" height="9" fill="#FF74B8" /><rect x="945" y="612" width="9" height="9" fill="#FF74B8" /><rect x="963" y="603" width="9" height="9" fill="#FF74B8" /><rect x="954" y="612" width="9" height="9" fill="#FF74B8" /><rect x="963" y="612" width="9" height="9" fill="#FF74B8" /><rect x="963" y="612" width="9" height="9" fill="#FF74B8" /><rect x="963" y="621" width="9" height="9" fill="#FF74B8" /><rect x="972" y="612" width="9" height="9" fill="#FF74B8" /><rect x="963" y="630" width="9" height="9" fill="#FF74B8" /><rect x="981" y="612" width="9" height="9" fill="#FF74B8" /><rect x="963" y="639" width="9" height="9" fill="#FF74B8" /><rect x="990" y="612" width="9" height="9" fill="#FF74B8" /><rect x="963" y="648" width="9" height="9" fill="#FF74B8" /><rect x="999" y="612" width="9" height="9" fill="#FF74B8" /><rect x="963" y="657" width="9" height="9" fill="#FF74B8" /><rect x="1008" y="612" width="9" height="9" fill="#FF74B8" /><rect x="963" y="666" width="9" height="9" fill="#FF74B8" /><rect x="1017" y="612" width="9" height="9" fill="#FF74B8" /><rect x="963" y="675" width="9" height="9" fill="#FF74B8" /><rect x="1026" y="612" width="9" height="9" fill="#FF74B8" /><rect x="972" y="621" width="9" height="9" fill="#FF4F9E" /><rect x="954" y="603" width="9" height="9" fill="#FF4F9E" /><rect x="972" y="603" width="9" height="9" fill="#FF4F9E" /><rect x="954" y="621" width="9" height="9" fill="#FF4F9E" /><rect x="981" y="630" width="9" height="9" fill="#FF4F9E" /><rect x="945" y="594" width="9" height="9" fill="#FF4F9E" /><rect x="981" y="594" width="9" height="9" fill="#FF4F9E" /><rect x="945" y="630" width="9" height="9" fill="#FF4F9E" /><rect x="990" y="639" width="9" height="9" fill="#FF4F9E" /><rect x="936" y="585" width="9" height="9" fill="#FF4F9E" /><rect x="990" y="585" width="9" height="9" fill="#FF4F9E" /><rect x="936" y="639" width="9" height="9" fill="#FF4F9E" /><rect x="963" y="612" width="9" height="9" fill="#FFFFFF" /><rect x="846" y="45" width="9" height="9" fill="#E8529E" /><rect x="792" y="99" width="9" height="9" fill="#E8529E" /><rect x="846" y="54" width="9" height="9" fill="#E8529E" /><rect x="801" y="99" width="9" height="9" fill="#E8529E" /><rect x="846" y="63" width="9" height="9" fill="#E8529E" /><rect x="810" y="99" width="9" height="9" fill="#E8529E" /><rect x="846" y="72" width="9" height="9" fill="#E8529E" /><rect x="819" y="99" width="9" height="9" fill="#E8529E" /><rect x="846" y="81" width="9" height="9" fill="#E8529E" /><rect x="828" y="99" width="9" height="9" fill="#E8529E" /><rect x="846" y="90" width="9" height="9" fill="#E8529E" /><rect x="837" y="99" width="9" height="9" fill="#E8529E" /><rect x="846" y="99" width="9" height="9" fill="#E8529E" /><rect x="846" y="99" width="9" height="9" fill="#E8529E" /><rect x="846" y="108" width="9" height="9" fill="#E8529E" /><rect x="855" y="99" width="9" height="9" fill="#E8529E" /><rect x="846" y="117" width="9" height="9" fill="#E8529E" /><rect x="864" y="99" width="9" height="9" fill="#E8529E" /><rect x="846" y="126" width="9" height="9" fill="#E8529E" /><rect x="873" y="99" width="9" height="9" fill="#E8529E" /><rect x="846" y="135" width="9" height="9" fill="#E8529E" /><rect x="882" y="99" width="9" height="9" fill="#E8529E" /><rect x="846" y="144" width="9" height="9" fill="#E8529E" /><rect x="891" y="99" width="9" height="9" fill="#E8529E" /><rect x="846" y="153" width="9" height="9" fill="#E8529E" /><rect x="900" y="99" width="9" height="9" fill="#E8529E" /><rect x="855" y="108" width="9" height="9" fill="#D6409F" /><rect x="837" y="90" width="9" height="9" fill="#D6409F" /><rect x="855" y="90" width="9" height="9" fill="#D6409F" /><rect x="837" y="108" width="9" height="9" fill="#D6409F" /><rect x="864" y="117" width="9" height="9" fill="#D6409F" /><rect x="828" y="81" width="9" height="9" fill="#D6409F" /><rect x="864" y="81" width="9" height="9" fill="#D6409F" /><rect x="828" y="117" width="9" height="9" fill="#D6409F" /><rect x="873" y="126" width="9" height="9" fill="#D6409F" /><rect x="819" y="72" width="9" height="9" fill="#D6409F" /><rect x="873" y="72" width="9" height="9" fill="#D6409F" /><rect x="819" y="126" width="9" height="9" fill="#D6409F" /><rect x="846" y="99" width="9" height="9" fill="#FFFFFF" /><rect x="-54" y="45" width="9" height="9" fill="#E8529E" /><rect x="-108" y="99" width="9" height="9" fill="#E8529E" /><rect x="-54" y="54" width="9" height="9" fill="#E8529E" /><rect x="-99" y="99" width="9" height="9" fill="#E8529E" /><rect x="-54" y="63" width="9" height="9" fill="#E8529E" /><rect x="-90" y="99" width="9" height="9" fill="#E8529E" /><rect x="-54" y="72" width="9" height="9" fill="#E8529E" /><rect x="-81" y="99" width="9" height="9" fill="#E8529E" /><rect x="-54" y="81" width="9" height="9" fill="#E8529E" /><rect x="-72" y="99" width="9" height="9" fill="#E8529E" /><rect x="-54" y="90" width="9" height="9" fill="#E8529E" /><rect x="-63" y="99" width="9" height="9" fill="#E8529E" /><rect x="-54" y="99" width="9" height="9" fill="#E8529E" /><rect x="-54" y="99" width="9" height="9" fill="#E8529E" /><rect x="-54" y="108" width="9" height="9" fill="#E8529E" /><rect x="-45" y="99" width="9" height="9" fill="#E8529E" /><rect x="-54" y="117" width="9" height="9" fill="#E8529E" /><rect x="-36" y="99" width="9" height="9" fill="#E8529E" /><rect x="-54" y="126" width="9" height="9" fill="#E8529E" /><rect x="-27" y="99" width="9" height="9" fill="#E8529E" /><rect x="-54" y="135" width="9" height="9" fill="#E8529E" /><rect x="-18" y="99" width="9" height="9" fill="#E8529E" /><rect x="-54" y="144" width="9" height="9" fill="#E8529E" /><rect x="-9" y="99" width="9" height="9" fill="#E8529E" /><rect x="-54" y="153" width="9" height="9" fill="#E8529E" /><rect x="0" y="99" width="9" height="9" fill="#E8529E" /><rect x="-45" y="108" width="9" height="9" fill="#D6409F" /><rect x="-63" y="90" width="9" height="9" fill="#D6409F" /><rect x="-45" y="90" width="9" height="9" fill="#D6409F" /><rect x="-63" y="108" width="9" height="9" fill="#D6409F" /><rect x="-36" y="117" width="9" height="9" fill="#D6409F" /><rect x="-72" y="81" width="9" height="9" fill="#D6409F" /><rect x="-36" y="81" width="9" height="9" fill="#D6409F" /><rect x="-72" y="117" width="9" height="9" fill="#D6409F" /><rect x="-27" y="126" width="9" height="9" fill="#D6409F" /><rect x="-81" y="72" width="9" height="9" fill="#D6409F" /><rect x="-27" y="72" width="9" height="9" fill="#D6409F" /><rect x="-81" y="126" width="9" height="9" fill="#D6409F" /><rect x="-54" y="99" width="9" height="9" fill="#FFFFFF" /><rect x="306" y="747" width="9" height="9" fill="#FFB6D9" /><rect x="252" y="801" width="9" height="9" fill="#FFB6D9" /><rect x="306" y="756" width="9" height="9" fill="#FFB6D9" /><rect x="261" y="801" width="9" height="9" fill="#FFB6D9" /><rect x="306" y="765" width="9" height="9" fill="#FFB6D9" /><rect x="270" y="801" width="9" height="9" fill="#FFB6D9" /><rect x="306" y="774" width="9" height="9" fill="#FFB6D9" /><rect x="279" y="801" width="9" height="9" fill="#FFB6D9" /><rect x="306" y="783" width="9" height="9" fill="#FFB6D9" /><rect x="288" y="801" width="9" height="9" fill="#FFB6D9" /><rect x="306" y="792" width="9" height="9" fill="#FFB6D9" /><rect x="297" y="801" width="9" height="9" fill="#FFB6D9" /><rect x="306" y="801" width="9" height="9" fill="#FFB6D9" /><rect x="306" y="801" width="9" height="9" fill="#FFB6D9" /><rect x="306" y="810" width="9" height="9" fill="#FFB6D9" /><rect x="315" y="801" width="9" height="9" fill="#FFB6D9" /><rect x="306" y="819" width="9" height="9" fill="#FFB6D9" /><rect x="324" y="801" width="9" height="9" fill="#FFB6D9" /><rect x="306" y="828" width="9" height="9" fill="#FFB6D9" /><rect x="333" y="801" width="9" height="9" fill="#FFB6D9" /><rect x="306" y="837" width="9" height="9" fill="#FFB6D9" /><rect x="342" y="801" width="9" height="9" fill="#FFB6D9" /><rect x="306" y="846" width="9" height="9" fill="#FFB6D9" /><rect x="351" y="801" width="9" height="9" fill="#FFB6D9" /><rect x="306" y="855" width="9" height="9" fill="#FFB6D9" /><rect x="360" y="801" width="9" height="9" fill="#FFB6D9" /><rect x="315" y="810" width="9" height="9" fill="#FF74B8" /><rect x="297" y="792" width="9" height="9" fill="#FF74B8" /><rect x="315" y="792" width="9" height="9" fill="#FF74B8" /><rect x="297" y="810" width="9" height="9" fill="#FF74B8" /><rect x="324" y="819" width="9" height="9" fill="#FF74B8" /><rect x="288" y="783" width="9" height="9" fill="#FF74B8" /><rect x="324" y="783" width="9" height="9" fill="#FF74B8" /><rect x="288" y="819" width="9" height="9" fill="#FF74B8" /><rect x="333" y="828" width="9" height="9" fill="#FF74B8" /><rect x="279" y="774" width="9" height="9" fill="#FF74B8" /><rect x="333" y="774" width="9" height="9" fill="#FF74B8" /><rect x="279" y="828" width="9" height="9" fill="#FF74B8" /><rect x="306" y="801" width="9" height="9" fill="#FFFFFF" /><rect x="594" y="171" width="9" height="9" fill="#FF8FA3" /><rect x="558" y="207" width="9" height="9" fill="#FF8FA3" /><rect x="594" y="180" width="9" height="9" fill="#FF8FA3" /><rect x="567" y="207" width="9" height="9" fill="#FF8FA3" /><rect x="594" y="189" width="9" height="9" fill="#FF8FA3" /><rect x="576" y="207" width="9" height="9" fill="#FF8FA3" /><rect x="594" y="198" width="9" height="9" fill="#FF8FA3" /><rect x="585" y="207" width="9" height="9" fill="#FF8FA3" /><rect x="594" y="207" width="9" height="9" fill="#FF8FA3" /><rect x="594" y="207" width="9" height="9" fill="#FF8FA3" /><rect x="594" y="216" width="9" height="9" fill="#FF8FA3" /><rect x="603" y="207" width="9" height="9" fill="#FF8FA3" /><rect x="594" y="225" width="9" height="9" fill="#FF8FA3" /><rect x="612" y="207" width="9" height="9" fill="#FF8FA3" /><rect x="594" y="234" width="9" height="9" fill="#FF8FA3" /><rect x="621" y="207" width="9" height="9" fill="#FF8FA3" /><rect x="594" y="243" width="9" height="9" fill="#FF8FA3" /><rect x="630" y="207" width="9" height="9" fill="#FF8FA3" /><rect x="603" y="216" width="9" height="9" fill="#FF74B8" /><rect x="585" y="198" width="9" height="9" fill="#FF74B8" /><rect x="603" y="198" width="9" height="9" fill="#FF74B8" /><rect x="585" y="216" width="9" height="9" fill="#FF74B8" /><rect x="612" y="225" width="9" height="9" fill="#FF74B8" /><rect x="576" y="189" width="9" height="9" fill="#FF74B8" /><rect x="612" y="189" width="9" height="9" fill="#FF74B8" /><rect x="576" y="225" width="9" height="9" fill="#FF74B8" /><rect x="594" y="207" width="9" height="9" fill="#FFFFFF" /><rect x="126" y="315" width="9" height="9" fill="#FF4F9E" /><rect x="108" y="333" width="9" height="9" fill="#FF4F9E" /><rect x="126" y="324" width="9" height="9" fill="#FF4F9E" /><rect x="117" y="333" width="9" height="9" fill="#FF4F9E" /><rect x="126" y="333" width="9" height="9" fill="#FF4F9E" /><rect x="126" y="333" width="9" height="9" fill="#FF4F9E" /><rect x="126" y="342" width="9" height="9" fill="#FF4F9E" /><rect x="135" y="333" width="9" height="9" fill="#FF4F9E" /><rect x="126" y="351" width="9" height="9" fill="#FF4F9E" /><rect x="144" y="333" width="9" height="9" fill="#FF4F9E" /><rect x="135" y="342" width="9" height="9" fill="#FF74B8" /><rect x="117" y="324" width="9" height="9" fill="#FF74B8" /><rect x="135" y="324" width="9" height="9" fill="#FF74B8" /><rect x="117" y="342" width="9" height="9" fill="#FF74B8" /><rect x="126" y="333" width="9" height="9" fill="#FFFFFF" /><rect x="747" y="540" width="9" height="9" fill="#E8529E" /><rect x="729" y="558" width="9" height="9" fill="#E8529E" /><rect x="747" y="549" width="9" height="9" fill="#E8529E" /><rect x="738" y="558" width="9" height="9" fill="#E8529E" /><rect x="747" y="558" width="9" height="9" fill="#E8529E" /><rect x="747" y="558" width="9" height="9" fill="#E8529E" /><rect x="747" y="567" width="9" height="9" fill="#E8529E" /><rect x="756" y="558" width="9" height="9" fill="#E8529E" /><rect x="747" y="576" width="9" height="9" fill="#E8529E" /><rect x="765" y="558" width="9" height="9" fill="#E8529E" /><rect x="756" y="567" width="9" height="9" fill="#FFB6D9" /><rect x="738" y="549" width="9" height="9" fill="#FFB6D9" /><rect x="756" y="549" width="9" height="9" fill="#FFB6D9" /><rect x="738" y="567" width="9" height="9" fill="#FFB6D9" /><rect x="747" y="558" width="9" height="9" fill="#FFFFFF" />
  <rect x="540" y="180" width="18" height="18" fill="#FFB6D9">
    <animate class="reduceMotionOff" attributeName="opacity" values="0.16;0.87;0.16" dur="1.45s" begin="-3.06s" repeatCount="indefinite" />
  </rect><rect x="819" y="756" width="18" height="18" fill="#FF74B8">
    <animate class="reduceMotionOff" attributeName="opacity" values="0.07;0.82;0.07" dur="1.73s" begin="-2.96s" repeatCount="indefinite" />
  </rect><rect x="603" y="252" width="9" height="9" fill="#FFB6D9">
    <animate class="reduceMotionOff" attributeName="opacity" values="0.16;0.83;0.16" dur="2.37s" begin="-0.16s" repeatCount="indefinite" />
  </rect><rect x="126" y="378" width="9" height="9" fill="#FFB6D9">
    <animate class="reduceMotionOff" attributeName="opacity" values="0.11;0.89;0.11" dur="1.81s" begin="-2.86s" repeatCount="indefinite" />
  </rect><rect x="882" y="369" width="18" height="18" fill="#D6409F">
    <animate class="reduceMotionOff" attributeName="opacity" values="0.08;0.81;0.08" dur="1.54s" begin="-0.41s" repeatCount="indefinite" />
  </rect><rect x="495" y="711" width="9" height="9" fill="#FFB6D9">
    <animate class="reduceMotionOff" attributeName="opacity" values="0.15;0.74;0.15" dur="2.83s" begin="-1.27s" repeatCount="indefinite" />
  </rect><rect x="306" y="270" width="9" height="9" fill="#FF8FA3">
    <animate class="reduceMotionOff" attributeName="opacity" values="0.13;0.75;0.13" dur="1.67s" begin="-1.76s" repeatCount="indefinite" />
  </rect><rect x="288" y="306" width="9" height="9" fill="#E8529E">
    <animate class="reduceMotionOff" attributeName="opacity" values="0.15;0.81;0.15" dur="2.40s" begin="-0.15s" repeatCount="indefinite" />
  </rect><rect x="162" y="585" width="9" height="9" fill="#FFB6D9">
    <animate class="reduceMotionOff" attributeName="opacity" values="0.19;0.81;0.19" dur="1.75s" begin="-0.01s" repeatCount="indefinite" />
  </rect><rect x="207" y="756" width="9" height="9" fill="#FF8FA3">
    <animate class="reduceMotionOff" attributeName="opacity" values="0.14;0.70;0.14" dur="2.30s" begin="-0.12s" repeatCount="indefinite" />
  </rect><rect x="396" y="243" width="9" height="9" fill="#FFB6D9">
    <animate class="reduceMotionOff" attributeName="opacity" values="0.16;0.84;0.16" dur="1.64s" begin="-0.47s" repeatCount="indefinite" />
  </rect><rect x="135" y="792" width="9" height="9" fill="#FF8FA3">
    <animate class="reduceMotionOff" attributeName="opacity" values="0.08;0.73;0.08" dur="2.50s" begin="-2.08s" repeatCount="indefinite" />
  </rect><rect x="774" y="324" width="9" height="9" fill="#FFB6D9">
    <animate class="reduceMotionOff" attributeName="opacity" values="0.11;0.83;0.11" dur="2.31s" begin="-0.60s" repeatCount="indefinite" />
  </rect><rect x="396" y="252" width="18" height="18" fill="#FF2E8F">
    <animate class="reduceMotionOff" attributeName="opacity" values="0.07;0.80;0.07" dur="3.01s" begin="-2.51s" repeatCount="indefinite" />
  </rect><rect x="567" y="567" width="9" height="9" fill="#D6409F">
    <animate class="reduceMotionOff" attributeName="opacity" values="0.20;0.90;0.20" dur="1.83s" begin="-3.13s" repeatCount="indefinite" />
  </rect><rect x="702" y="288" width="9" height="9" fill="#FF2E8F">
    <animate class="reduceMotionOff" attributeName="opacity" values="0.13;0.77;0.13" dur="1.78s" begin="-0.13s" repeatCount="indefinite" />
  </rect><rect x="819" y="837" width="9" height="9" fill="#FF74B8">
    <animate class="reduceMotionOff" attributeName="opacity" values="0.05;0.82;0.05" dur="1.42s" begin="-0.40s" repeatCount="indefinite" />
  </rect><rect x="432" y="531" width="9" height="9" fill="#FF8FA3">
    <animate class="reduceMotionOff" attributeName="opacity" values="0.11;0.78;0.11" dur="2.25s" begin="-1.41s" repeatCount="indefinite" />
  </rect><rect x="792" y="63" width="18" height="18" fill="#FF2E8F">
    <animate class="reduceMotionOff" attributeName="opacity" values="0.13;0.73;0.13" dur="2.74s" begin="-2.66s" repeatCount="indefinite" />
  </rect><rect x="333" y="297" width="18" height="18" fill="#E8529E">
    <animate class="reduceMotionOff" attributeName="opacity" values="0.19;0.74;0.19" dur="2.97s" begin="-0.19s" repeatCount="indefinite" />
  </rect><rect x="207" y="810" width="9" height="9" fill="#D6409F">
    <animate class="reduceMotionOff" attributeName="opacity" values="0.17;0.85;0.17" dur="2.69s" begin="-1.05s" repeatCount="indefinite" />
  </rect><rect x="603" y="72" width="9" height="9" fill="#FF74B8">
    <animate class="reduceMotionOff" attributeName="opacity" values="0.19;0.75;0.19" dur="2.76s" begin="-1.46s" repeatCount="indefinite" />
  </rect><rect x="342" y="234" width="9" height="9" fill="#E8529E">
    <animate class="reduceMotionOff" attributeName="opacity" values="0.11;0.72;0.11" dur="2.20s" begin="-2.20s" repeatCount="indefinite" />
  </rect><rect x="270" y="729" width="9" height="9" fill="#FFB6D9">
    <animate class="reduceMotionOff" attributeName="opacity" values="0.08;0.88;0.08" dur="3.16s" begin="-2.82s" repeatCount="indefinite" />
  </rect><rect x="765" y="54" width="9" height="9" fill="#E8529E">
    <animate class="reduceMotionOff" attributeName="opacity" values="0.08;0.89;0.08" dur="1.72s" begin="-0.49s" repeatCount="indefinite" />
  </rect><rect x="792" y="684" width="18" height="18" fill="#E8529E">
    <animate class="reduceMotionOff" attributeName="opacity" values="0.10;0.73;0.10" dur="2.00s" begin="-1.20s" repeatCount="indefinite" />
  </rect><rect x="153" y="675" width="9" height="9" fill="#FF2E8F">
    <animate class="reduceMotionOff" attributeName="opacity" values="0.19;0.83;0.19" dur="2.78s" begin="-0.32s" repeatCount="indefinite" />
  </rect><rect x="603" y="441" width="18" height="18" fill="#E8529E">
    <animate class="reduceMotionOff" attributeName="opacity" values="0.15;0.79;0.15" dur="1.48s" begin="-2.14s" repeatCount="indefinite" />
  </rect><rect x="792" y="891" width="18" height="18" fill="#FF2E8F">
    <animate class="reduceMotionOff" attributeName="opacity" values="0.10;0.70;0.10" dur="1.69s" begin="-2.12s" repeatCount="indefinite" />
  </rect><rect x="144" y="819" width="9" height="9" fill="#FF74B8">
    <animate class="reduceMotionOff" attributeName="opacity" values="0.08;0.87;0.08" dur="2.03s" begin="-1.81s" repeatCount="indefinite" />
  </rect><rect x="738" y="666" width="9" height="9" fill="#FF74B8">
    <animate class="reduceMotionOff" attributeName="opacity" values="0.10;0.82;0.10" dur="2.36s" begin="-2.14s" repeatCount="indefinite" />
  </rect><rect x="63" y="639" width="18" height="18" fill="#E8529E">
    <animate class="reduceMotionOff" attributeName="opacity" values="0.13;0.81;0.13" dur="1.78s" begin="-0.84s" repeatCount="indefinite" />
  </rect><rect x="333" y="819" width="9" height="9" fill="#FF8FA3">
    <animate class="reduceMotionOff" attributeName="opacity" values="0.10;0.72;0.10" dur="2.93s" begin="-2.15s" repeatCount="indefinite" />
  </rect><rect x="765" y="630" width="9" height="9" fill="#D6409F">
    <animate class="reduceMotionOff" attributeName="opacity" values="0.19;0.76;0.19" dur="1.90s" begin="-0.88s" repeatCount="indefinite" />
  </rect><rect x="333" y="576" width="18" height="18" fill="#FF2E8F">
    <animate class="reduceMotionOff" attributeName="opacity" values="0.10;0.72;0.10" dur="2.02s" begin="-2.88s" repeatCount="indefinite" />
  </rect><rect x="594" y="441" width="18" height="18" fill="#E8529E">
    <animate class="reduceMotionOff" attributeName="opacity" values="0.05;0.70;0.05" dur="2.44s" begin="-1.85s" repeatCount="indefinite" />
  </rect><rect x="711" y="684" width="18" height="18" fill="#FF8FA3">
    <animate class="reduceMotionOff" attributeName="opacity" values="0.19;0.77;0.19" dur="2.18s" begin="-1.42s" repeatCount="indefinite" />
  </rect><rect x="846" y="252" width="9" height="9" fill="#D6409F">
    <animate class="reduceMotionOff" attributeName="opacity" values="0.12;0.90;0.12" dur="3.15s" begin="-1.60s" repeatCount="indefinite" />
  </rect><rect x="207" y="576" width="18" height="18" fill="#FF74B8">
    <animate class="reduceMotionOff" attributeName="opacity" values="0.18;0.75;0.18" dur="1.87s" begin="-2.97s" repeatCount="indefinite" />
  </rect><rect x="90" y="153" width="9" height="9" fill="#E8529E">
    <animate class="reduceMotionOff" attributeName="opacity" values="0.12;0.80;0.12" dur="3.05s" begin="-0.48s" repeatCount="indefinite" />
  </rect><rect x="765" y="405" width="9" height="9" fill="#E8529E">
    <animate class="reduceMotionOff" attributeName="opacity" values="0.19;0.76;0.19" dur="1.60s" begin="-0.99s" repeatCount="indefinite" />
  </rect><rect x="387" y="855" width="9" height="9" fill="#D6409F">
    <animate class="reduceMotionOff" attributeName="opacity" values="0.12;0.84;0.12" dur="2.44s" begin="-1.73s" repeatCount="indefinite" />
  </rect><rect x="873" y="243" width="9" height="9" fill="#FFB6D9">
    <animate class="reduceMotionOff" attributeName="opacity" values="0.06;0.72;0.06" dur="1.68s" begin="-0.12s" repeatCount="indefinite" />
  </rect><rect x="657" y="855" width="9" height="9" fill="#FF74B8">
    <animate class="reduceMotionOff" attributeName="opacity" values="0.13;0.83;0.13" dur="2.52s" begin="-3.14s" repeatCount="indefinite" />
  </rect><rect x="198" y="126" width="9" height="9" fill="#D6409F">
    <animate class="reduceMotionOff" attributeName="opacity" values="0.16;0.83;0.16" dur="2.82s" begin="-2.85s" repeatCount="indefinite" />
  </rect><rect x="72" y="585" width="9" height="9" fill="#FF74B8">
    <animate class="reduceMotionOff" attributeName="opacity" values="0.10;0.76;0.10" dur="3.06s" begin="-1.19s" repeatCount="indefinite" />
  </rect><rect x="54" y="162" width="18" height="18" fill="#E8529E">
    <animate class="reduceMotionOff" attributeName="opacity" values="0.20;0.85;0.20" dur="2.41s" begin="-0.79s" repeatCount="indefinite" />
  </rect><rect x="855" y="648" width="9" height="9" fill="#FF74B8">
    <animate class="reduceMotionOff" attributeName="opacity" values="0.10;0.72;0.10" dur="1.74s" begin="-1.49s" repeatCount="indefinite" />
  </rect><rect x="315" y="216" width="9" height="9" fill="#FF8FA3">
    <animate class="reduceMotionOff" attributeName="opacity" values="0.14;0.74;0.14" dur="1.42s" begin="-2.17s" repeatCount="indefinite" />
  </rect><rect x="252" y="630" width="9" height="9" fill="#FF8FA3">
    <animate class="reduceMotionOff" attributeName="opacity" values="0.19;0.76;0.19" dur="2.42s" begin="-1.91s" repeatCount="indefinite" />
  </rect><rect x="279" y="648" width="18" height="18" fill="#D6409F">
    <animate class="reduceMotionOff" attributeName="opacity" values="0.18;0.73;0.18" dur="1.86s" begin="-2.46s" repeatCount="indefinite" />
  </rect><rect x="801" y="513" width="9" height="9" fill="#FF8FA3">
    <animate class="reduceMotionOff" attributeName="opacity" values="0.09;0.77;0.09" dur="1.82s" begin="-2.68s" repeatCount="indefinite" />
  </rect><rect x="540" y="522" width="9" height="9" fill="#FF8FA3">
    <animate class="reduceMotionOff" attributeName="opacity" values="0.07;0.83;0.07" dur="2.69s" begin="-2.31s" repeatCount="indefinite" />
  </rect><rect x="279" y="540" width="9" height="9" fill="#E8529E">
    <animate class="reduceMotionOff" attributeName="opacity" values="0.11;0.82;0.11" dur="1.87s" begin="-1.99s" repeatCount="indefinite" />
  </rect><rect x="234" y="432" width="9" height="9" fill="#FF74B8">
    <animate class="reduceMotionOff" attributeName="opacity" values="0.19;0.85;0.19" dur="2.60s" begin="-0.38s" repeatCount="indefinite" />
  </rect>
</svg>